solid ascii
  facet normal -0 -1 -0
    outer loop
      vertex 53.5679 20.7964 -2.7766
      vertex 53.5679 20.7964 -0.776597
      vertex -4.93209 20.7964 -0.776597
    endloop
  endfacet
  facet normal -0 -1 -0
    outer loop
      vertex -4.93209 20.7964 -0.776597
      vertex -4.93209 20.7964 -2.7766
      vertex 53.5679 20.7964 -2.7766
    endloop
  endfacet
  facet normal -1 -0 -0
    outer loop
      vertex 53.5679 20.7964 -0.776597
      vertex 53.5679 20.7964 -2.7766
      vertex 53.5679 -24.2036 -2.7766
    endloop
  endfacet
  facet normal -1 -0 -0
    outer loop
      vertex 53.5679 -24.2036 -2.7766
      vertex 53.5679 -24.2036 -0.776597
      vertex 53.5679 20.7964 -0.776597
    endloop
  endfacet
  facet normal 0 1 0
    outer loop
      vertex 53.5679 -24.2036 -0.776597
      vertex 53.5679 -24.2036 -2.7766
      vertex -4.93209 -24.2036 -2.7766
    endloop
  endfacet
  facet normal 0 1 0
    outer loop
      vertex -4.93209 -24.2036 -2.7766
      vertex -4.93209 -24.2036 -0.776597
      vertex 53.5679 -24.2036 -0.776597
    endloop
  endfacet
  facet normal 1 0 0
    outer loop
      vertex -4.93209 20.7964 -2.7766
      vertex -4.93209 20.7964 -0.776597
      vertex -4.93209 -24.2036 -0.776597
    endloop
  endfacet
  facet normal 1 0 0
    outer loop
      vertex -4.93209 -24.2036 -0.776597
      vertex -4.93209 -24.2036 -2.7766
      vertex -4.93209 20.7964 -2.7766
    endloop
  endfacet
  facet normal -8.30703e-09 0 1
    outer loop
      vertex -4.93209 20.7964 -0.776597
      vertex -24.9321 25.9615 -0.776597
      vertex -25.2891 25.7115 -0.776597
    endloop
  endfacet
  facet normal 4.40009e-08 0 1
    outer loop
      vertex -4.93209 20.7964 -0.776597
      vertex -25.8472 25.0464 -0.776597
      vertex -26.0313 24.6515 -0.776597
    endloop
  endfacet
  facet normal -5.83955e-08 0 1
    outer loop
      vertex -25.2891 25.7115 -0.776597
      vertex -25.5972 25.4034 -0.776597
      vertex -4.93209 20.7964 -0.776597
    endloop
  endfacet
  facet normal -7.44897e-08 0 1
    outer loop
      vertex 53.5679 20.7964 -0.776597
      vertex 73.5679 25.9615 -0.776597
      vertex 73.173 26.1456 -0.776597
    endloop
  endfacet
  facet normal -6.6652e-09 0 1
    outer loop
      vertex 53.5679 20.7964 -0.776597
      vertex 74.483 25.0464 -0.776597
      vertex 74.233 25.4034 -0.776597
    endloop
  endfacet
  facet normal 7.44913e-08 0 1
    outer loop
      vertex -4.93209 -24.2036 -0.776597
      vertex -24.9321 -29.3687 -0.776597
      vertex -24.5371 -29.5528 -0.776597
    endloop
  endfacet
  facet normal -4.37962e-08 0 1
    outer loop
      vertex -4.93209 -24.2036 -0.776597
      vertex -25.5972 -28.8106 -0.776597
      vertex -25.2891 -29.1187 -0.776597
    endloop
  endfacet
  facet normal -6.28586e-09 0 1
    outer loop
      vertex -4.93209 -24.2036 -0.776597
      vertex -26.0313 -28.0586 -0.776597
      vertex -25.8472 -28.4536 -0.776597
    endloop
  endfacet
  facet normal 0 0 1
    outer loop
      vertex -25.5972 25.4034 -0.776597
      vertex -25.8472 25.0464 -0.776597
      vertex -4.93209 20.7964 -0.776597
    endloop
  endfacet
  facet normal 1.15758e-07 0 1
    outer loop
      vertex -4.93209 20.7964 -0.776597
      vertex -23.6821 26.2964 -0.776597
      vertex -24.1162 26.2584 -0.776597
    endloop
  endfacet
  facet normal 2.0379e-07 0 1
    outer loop
      vertex 73.173 26.1456 -0.776597
      vertex 72.752 26.2584 -0.776597
      vertex 53.5679 20.7964 -0.776597
    endloop
  endfacet
  facet normal 0 0 1
    outer loop
      vertex 74.233 25.4034 -0.776597
      vertex 73.9249 25.7115 -0.776597
      vertex 53.5679 20.7964 -0.776597
    endloop
  endfacet
  facet normal 4.37962e-08 0 1
    outer loop
      vertex 53.5679 -24.2036 -0.776597
      vertex 73.9249 -29.1187 -0.776597
      vertex 74.233 -28.8106 -0.776597
    endloop
  endfacet
  facet normal 0 0 1
    outer loop
      vertex -24.5371 -29.5528 -0.776597
      vertex -24.1162 -29.6656 -0.776597
      vertex -4.93209 -24.2036 -0.776597
    endloop
  endfacet
  facet normal 0 0 1
    outer loop
      vertex -25.8472 -28.4536 -0.776597
      vertex -25.5972 -28.8106 -0.776597
      vertex -4.93209 -24.2036 -0.776597
    endloop
  endfacet
  facet normal -4.88132e-08 0 1
    outer loop
      vertex -26.0313 24.6515 -0.776597
      vertex -26.1441 24.2305 -0.776597
      vertex -4.93209 20.7964 -0.776597
    endloop
  endfacet
  facet normal -2.0379e-07 0 1
    outer loop
      vertex -24.1162 26.2584 -0.776597
      vertex -24.5371 26.1456 -0.776597
      vertex -4.93209 20.7964 -0.776597
    endloop
  endfacet
  facet normal 0 0 1
    outer loop
      vertex 73.9249 25.7115 -0.776597
      vertex 73.5679 25.9615 -0.776597
      vertex 53.5679 20.7964 -0.776597
    endloop
  endfacet
  facet normal 3.66099e-08 0 1
    outer loop
      vertex 53.5679 20.7964 -0.776597
      vertex 74.7799 24.2305 -0.776597
      vertex 74.6671 24.6515 -0.776597
    endloop
  endfacet
  facet normal 8.30707e-09 0 1
    outer loop
      vertex 53.5679 -24.2036 -0.776597
      vertex 73.5679 -29.3687 -0.776597
      vertex 73.9249 -29.1187 -0.776597
    endloop
  endfacet
  facet normal 0 0 1
    outer loop
      vertex -25.2891 -29.1187 -0.776597
      vertex -24.9321 -29.3687 -0.776597
      vertex -4.93209 -24.2036 -0.776597
    endloop
  endfacet
  facet normal -3.04334e-08 0 1
    outer loop
      vertex -4.93209 -24.2036 -0.776597
      vertex -26.1821 -27.2036 -0.776597
      vertex -26.1441 -27.6377 -0.776597
    endloop
  endfacet
  facet normal 0 0 1
    outer loop
      vertex -26.1821 -27.2036 -0.776597
      vertex -4.93209 -24.2036 -0.776597
      vertex -4.93209 20.7964 -0.776597
    endloop
  endfacet
  facet normal 0 0 1
    outer loop
      vertex -24.5371 26.1456 -0.776597
      vertex -24.9321 25.9615 -0.776597
      vertex -4.93209 20.7964 -0.776597
    endloop
  endfacet
  facet normal -5.02868e-08 0 1
    outer loop
      vertex 74.6671 24.6515 -0.776597
      vertex 74.483 25.0464 -0.776597
      vertex 53.5679 20.7964 -0.776597
    endloop
  endfacet
  facet normal 6.28586e-09 0 1
    outer loop
      vertex 53.5679 -24.2036 -0.776597
      vertex 74.483 -28.4536 -0.776597
      vertex 74.6671 -28.0586 -0.776597
    endloop
  endfacet
  facet normal -7.44901e-08 0 1
    outer loop
      vertex 53.5679 -24.2036 -0.776597
      vertex 73.173 -29.5528 -0.776597
      vertex 73.5679 -29.3687 -0.776597
    endloop
  endfacet
  facet normal 1.23784e-07 0 1
    outer loop
      vertex 53.5679 -24.2036 -0.776597
      vertex 72.3179 -29.7036 -0.776597
      vertex 72.752 -29.6656 -0.776597
    endloop
  endfacet
  facet normal 0 0 1
    outer loop
      vertex -26.1441 -27.6377 -0.776597
      vertex -26.0313 -28.0586 -0.776597
      vertex -4.93209 -24.2036 -0.776597
    endloop
  endfacet
  facet normal 0 0 1
    outer loop
      vertex -26.1441 24.2305 -0.776597
      vertex -26.1821 23.7964 -0.776597
      vertex -4.93209 20.7964 -0.776597
    endloop
  endfacet
  facet normal -1.82599e-08 0 1
    outer loop
      vertex 53.5679 20.7964 -0.776597
      vertex 74.8179 23.7964 -0.776597
      vertex 74.7799 24.2305 -0.776597
    endloop
  endfacet
  facet normal -4.19605e-10 0 1
    outer loop
      vertex 74.8179 -27.2036 -0.776597
      vertex 74.8179 23.7964 -0.776597
      vertex 53.5679 20.7964 -0.776597
    endloop
  endfacet
  facet normal 0 0 1
    outer loop
      vertex 74.6671 -28.0586 -0.776597
      vertex 74.7799 -27.6377 -0.776597
      vertex 53.5679 -24.2036 -0.776597
    endloop
  endfacet
  facet normal 0 0 1
    outer loop
      vertex 72.752 -29.6656 -0.776597
      vertex 73.173 -29.5528 -0.776597
      vertex 53.5679 -24.2036 -0.776597
    endloop
  endfacet
  facet normal 0 0 1
    outer loop
      vertex -4.93209 20.7964 -0.776597
      vertex -26.1821 23.7964 -0.776597
      vertex -26.1821 -27.2036 -0.776597
    endloop
  endfacet
  facet normal 0 0 1
    outer loop
      vertex -23.6821 -29.7036 -0.776597
      vertex 72.3179 -29.7036 -0.776597
      vertex 53.5679 -24.2036 -0.776597
    endloop
  endfacet
  facet normal -3.80442e-09 0 1
    outer loop
      vertex 53.5679 20.7964 -0.776597
      vertex 53.5679 -24.2036 -0.776597
      vertex 74.8179 -27.2036 -0.776597
    endloop
  endfacet
  facet normal 0 0 1
    outer loop
      vertex 74.233 -28.8106 -0.776597
      vertex 74.483 -28.4536 -0.776597
      vertex 53.5679 -24.2036 -0.776597
    endloop
  endfacet
  facet normal 0 0 1
    outer loop
      vertex 53.5679 -24.2036 -0.776597
      vertex -4.93209 -24.2036 -0.776597
      vertex -23.6821 -29.7036 -0.776597
    endloop
  endfacet
  facet normal 4.86936e-08 0 1
    outer loop
      vertex 74.7799 -27.6377 -0.776597
      vertex 74.8179 -27.2036 -0.776597
      vertex 53.5679 -24.2036 -0.776597
    endloop
  endfacet
  facet normal 0 0 1
    outer loop
      vertex 72.3179 26.2964 -0.776597
      vertex -23.6821 26.2964 -0.776597
      vertex -4.93209 20.7964 -0.776597
    endloop
  endfacet
  facet normal 0 0 1
    outer loop
      vertex 72.752 26.2584 -0.776597
      vertex 72.3179 26.2964 -0.776597
      vertex 53.5679 20.7964 -0.776597
    endloop
  endfacet
  facet normal 0 0 1
    outer loop
      vertex -24.1162 -29.6656 -0.776597
      vertex -23.6821 -29.7036 -0.776597
      vertex -4.93209 -24.2036 -0.776597
    endloop
  endfacet
  facet normal 0 0 1
    outer loop
      vertex -4.93209 20.7964 -0.776597
      vertex 53.5679 20.7964 -0.776597
      vertex 72.3179 26.2964 -0.776597
    endloop
  endfacet
  facet normal -0 -1 -0
    outer loop
      vertex 72.3179 -29.7036 -2.7766
      vertex 72.3179 -29.7036 -0.776597
      vertex -23.6821 -29.7036 -0.776597
    endloop
  endfacet
  facet normal -0 -1 -0
    outer loop
      vertex -23.6821 -29.7036 -0.776597
      vertex -23.6821 -29.7036 -2.7766
      vertex 72.3179 -29.7036 -2.7766
    endloop
  endfacet
  facet normal 1 0 0
    outer loop
      vertex 74.8179 23.7964 -2.7766
      vertex 74.8179 23.7964 -0.776597
      vertex 74.8179 -27.2036 -0.776597
    endloop
  endfacet
  facet normal 1 0 0
    outer loop
      vertex 74.8179 -27.2036 -0.776597
      vertex 74.8179 -27.2036 -2.7766
      vertex 74.8179 23.7964 -2.7766
    endloop
  endfacet
  facet normal 0 1 0
    outer loop
      vertex -23.6821 26.2964 -0.776597
      vertex 72.3179 26.2964 -0.776597
      vertex 72.3179 26.2964 -2.7766
    endloop
  endfacet
  facet normal 0 1 0
    outer loop
      vertex 72.3179 26.2964 -2.7766
      vertex -23.6821 26.2964 -2.7766
      vertex -23.6821 26.2964 -0.776597
    endloop
  endfacet
  facet normal -1 -0 -0
    outer loop
      vertex -26.1821 -27.2036 -0.776597
      vertex -26.1821 23.7964 -0.776597
      vertex -26.1821 23.7964 -2.7766
    endloop
  endfacet
  facet normal -1 -0 -0
    outer loop
      vertex -26.1821 23.7964 -2.7766
      vertex -26.1821 -27.2036 -2.7766
      vertex -26.1821 -27.2036 -0.776597
    endloop
  endfacet
  facet normal 0.996195 -0.0871553 0
    outer loop
      vertex 74.8179 -27.2036 -2.7766
      vertex 74.8179 -27.2036 -0.776597
      vertex 74.7799 -27.6377 -0.776597
    endloop
  endfacet
  facet normal 0.965932 -0.258797 0
    outer loop
      vertex 74.7799 -27.6377 -2.7766
      vertex 74.7799 -27.6377 -0.776597
      vertex 74.6671 -28.0586 -0.776597
    endloop
  endfacet
  facet normal 0.906307 -0.42262 0
    outer loop
      vertex 74.6671 -28.0586 -2.7766
      vertex 74.6671 -28.0586 -0.776597
      vertex 74.483 -28.4536 -0.776597
    endloop
  endfacet
  facet normal 0.819145 -0.573586 0
    outer loop
      vertex 74.483 -28.4536 -2.7766
      vertex 74.483 -28.4536 -0.776597
      vertex 74.233 -28.8106 -0.776597
    endloop
  endfacet
  facet normal 0.707097 -0.707116 0
    outer loop
      vertex 74.233 -28.8106 -2.7766
      vertex 74.233 -28.8106 -0.776597
      vertex 73.9249 -29.1187 -0.776597
    endloop
  endfacet
  facet normal 0.573587 -0.819144 0
    outer loop
      vertex 73.9249 -29.1187 -2.7766
      vertex 73.9249 -29.1187 -0.776597
      vertex 73.5679 -29.3687 -0.776597
    endloop
  endfacet
  facet normal 0.422613 -0.90631 0
    outer loop
      vertex 73.5679 -29.3687 -2.7766
      vertex 73.5679 -29.3687 -0.776597
      vertex 73.173 -29.5528 -0.776597
    endloop
  endfacet
  facet normal 0.258822 -0.965925 0
    outer loop
      vertex 73.173 -29.5528 -2.7766
      vertex 73.173 -29.5528 -0.776597
      vertex 72.752 -29.6656 -0.776597
    endloop
  endfacet
  facet normal 0.0871544 -0.996195 0
    outer loop
      vertex 72.752 -29.6656 -2.7766
      vertex 72.752 -29.6656 -0.776597
      vertex 72.3179 -29.7036 -0.776597
    endloop
  endfacet
  facet normal 0.0871544 -0.996195 0
    outer loop
      vertex 72.3179 -29.7036 -0.776597
      vertex 72.3179 -29.7036 -2.7766
      vertex 72.752 -29.6656 -2.7766
    endloop
  endfacet
  facet normal 0.258822 -0.965925 0
    outer loop
      vertex 72.752 -29.6656 -0.776597
      vertex 72.752 -29.6656 -2.7766
      vertex 73.173 -29.5528 -2.7766
    endloop
  endfacet
  facet normal 0.422613 -0.90631 0
    outer loop
      vertex 73.173 -29.5528 -0.776597
      vertex 73.173 -29.5528 -2.7766
      vertex 73.5679 -29.3687 -2.7766
    endloop
  endfacet
  facet normal 0.573572 -0.819155 0
    outer loop
      vertex 73.5679 -29.3687 -0.776597
      vertex 73.5679 -29.3687 -2.7766
      vertex 73.9249 -29.1187 -2.7766
    endloop
  endfacet
  facet normal 0.707114 -0.7071 0
    outer loop
      vertex 73.9249 -29.1187 -0.776597
      vertex 73.9249 -29.1187 -2.7766
      vertex 74.233 -28.8106 -2.7766
    endloop
  endfacet
  facet normal 0.819161 -0.573564 0
    outer loop
      vertex 74.233 -28.8106 -0.776597
      vertex 74.233 -28.8106 -2.7766
      vertex 74.483 -28.4536 -2.7766
    endloop
  endfacet
  facet normal 0.906307 -0.42262 0
    outer loop
      vertex 74.483 -28.4536 -0.776597
      vertex 74.483 -28.4536 -2.7766
      vertex 74.6671 -28.0586 -2.7766
    endloop
  endfacet
  facet normal 0.965923 -0.258828 0
    outer loop
      vertex 74.6671 -28.0586 -0.776597
      vertex 74.6671 -28.0586 -2.7766
      vertex 74.7799 -27.6377 -2.7766
    endloop
  endfacet
  facet normal 0.996192 -0.0871885 0
    outer loop
      vertex 74.7799 -27.6377 -0.776597
      vertex 74.7799 -27.6377 -2.7766
      vertex 74.8179 -27.2036 -2.7766
    endloop
  endfacet
  facet normal 0.0871586 0.996194 0
    outer loop
      vertex 72.3179 26.2964 -2.7766
      vertex 72.3179 26.2964 -0.776597
      vertex 72.752 26.2584 -0.776597
    endloop
  endfacet
  facet normal 0.258822 0.965925 0
    outer loop
      vertex 72.752 26.2584 -2.7766
      vertex 72.752 26.2584 -0.776597
      vertex 73.173 26.1456 -0.776597
    endloop
  endfacet
  facet normal 0.422613 0.90631 0
    outer loop
      vertex 73.173 26.1456 -2.7766
      vertex 73.173 26.1456 -0.776597
      vertex 73.5679 25.9615 -0.776597
    endloop
  endfacet
  facet normal 0.573572 0.819155 0
    outer loop
      vertex 73.5679 25.9615 -2.7766
      vertex 73.5679 25.9615 -0.776597
      vertex 73.9249 25.7115 -0.776597
    endloop
  endfacet
  facet normal 0.707114 0.7071 0
    outer loop
      vertex 73.9249 25.7115 -2.7766
      vertex 73.9249 25.7115 -0.776597
      vertex 74.233 25.4034 -0.776597
    endloop
  endfacet
  facet normal 0.819161 0.573564 0
    outer loop
      vertex 74.233 25.4034 -2.7766
      vertex 74.233 25.4034 -0.776597
      vertex 74.483 25.0464 -0.776597
    endloop
  endfacet
  facet normal 0.906307 0.42262 0
    outer loop
      vertex 74.483 25.0464 -2.7766
      vertex 74.483 25.0464 -0.776597
      vertex 74.6671 24.6515 -0.776597
    endloop
  endfacet
  facet normal 0.965923 0.258828 0
    outer loop
      vertex 74.6671 24.6515 -2.7766
      vertex 74.6671 24.6515 -0.776597
      vertex 74.7799 24.2305 -0.776597
    endloop
  endfacet
  facet normal 0.996192 0.0871885 0
    outer loop
      vertex 74.7799 24.2305 -2.7766
      vertex 74.7799 24.2305 -0.776597
      vertex 74.8179 23.7964 -0.776597
    endloop
  endfacet
  facet normal 0.996195 0.0871553 0
    outer loop
      vertex 74.8179 23.7964 -0.776597
      vertex 74.8179 23.7964 -2.7766
      vertex 74.7799 24.2305 -2.7766
    endloop
  endfacet
  facet normal 0.965932 0.258797 0
    outer loop
      vertex 74.7799 24.2305 -0.776597
      vertex 74.7799 24.2305 -2.7766
      vertex 74.6671 24.6515 -2.7766
    endloop
  endfacet
  facet normal 0.906307 0.42262 0
    outer loop
      vertex 74.6671 24.6515 -0.776597
      vertex 74.6671 24.6515 -2.7766
      vertex 74.483 25.0464 -2.7766
    endloop
  endfacet
  facet normal 0.819145 0.573586 0
    outer loop
      vertex 74.483 25.0464 -0.776597
      vertex 74.483 25.0464 -2.7766
      vertex 74.233 25.4034 -2.7766
    endloop
  endfacet
  facet normal 0.707097 0.707116 0
    outer loop
      vertex 74.233 25.4034 -0.776597
      vertex 74.233 25.4034 -2.7766
      vertex 73.9249 25.7115 -2.7766
    endloop
  endfacet
  facet normal 0.573587 0.819144 0
    outer loop
      vertex 73.9249 25.7115 -0.776597
      vertex 73.9249 25.7115 -2.7766
      vertex 73.5679 25.9615 -2.7766
    endloop
  endfacet
  facet normal 0.422613 0.90631 0
    outer loop
      vertex 73.5679 25.9615 -0.776597
      vertex 73.5679 25.9615 -2.7766
      vertex 73.173 26.1456 -2.7766
    endloop
  endfacet
  facet normal 0.258822 0.965925 0
    outer loop
      vertex 73.173 26.1456 -0.776597
      vertex 73.173 26.1456 -2.7766
      vertex 72.752 26.2584 -2.7766
    endloop
  endfacet
  facet normal 0.0871586 0.996194 0
    outer loop
      vertex 72.752 26.2584 -0.776597
      vertex 72.752 26.2584 -2.7766
      vertex 72.3179 26.2964 -2.7766
    endloop
  endfacet
  facet normal -0.0871529 -0.996195 -0
    outer loop
      vertex -23.6821 -29.7036 -2.7766
      vertex -23.6821 -29.7036 -0.776597
      vertex -24.1162 -29.6656 -0.776597
    endloop
  endfacet
  facet normal -0.258824 -0.965925 -0
    outer loop
      vertex -24.1162 -29.6656 -2.7766
      vertex -24.1162 -29.6656 -0.776597
      vertex -24.5371 -29.5528 -0.776597
    endloop
  endfacet
  facet normal -0.422613 -0.90631 -0
    outer loop
      vertex -24.5371 -29.5528 -2.7766
      vertex -24.5371 -29.5528 -0.776597
      vertex -24.9321 -29.3687 -0.776597
    endloop
  endfacet
  facet normal -0.573575 -0.819153 -0
    outer loop
      vertex -24.9321 -29.3687 -2.7766
      vertex -24.9321 -29.3687 -0.776597
      vertex -25.2891 -29.1187 -0.776597
    endloop
  endfacet
  facet normal -0.70711 -0.707104 -0
    outer loop
      vertex -25.2891 -29.1187 -2.7766
      vertex -25.2891 -29.1187 -0.776597
      vertex -25.5972 -28.8106 -0.776597
    endloop
  endfacet
  facet normal -0.819153 -0.573575 -0
    outer loop
      vertex -25.5972 -28.8106 -2.7766
      vertex -25.5972 -28.8106 -0.776597
      vertex -25.8472 -28.4536 -0.776597
    endloop
  endfacet
  facet normal -0.90631 -0.422613 -0
    outer loop
      vertex -25.8472 -28.4536 -2.7766
      vertex -25.8472 -28.4536 -0.776597
      vertex -26.0313 -28.0586 -0.776597
    endloop
  endfacet
  facet normal -0.965928 -0.258812 -0
    outer loop
      vertex -26.0313 -28.0586 -2.7766
      vertex -26.0313 -28.0586 -0.776597
      vertex -26.1441 -27.6377 -0.776597
    endloop
  endfacet
  facet normal -0.996194 -0.0871636 -0
    outer loop
      vertex -26.1441 -27.6377 -2.7766
      vertex -26.1441 -27.6377 -0.776597
      vertex -26.1821 -27.2036 -0.776597
    endloop
  endfacet
  facet normal -0.996195 -0.087147 -0
    outer loop
      vertex -26.1821 -27.2036 -0.776597
      vertex -26.1821 -27.2036 -2.7766
      vertex -26.1441 -27.6377 -2.7766
    endloop
  endfacet
  facet normal -0.965926 -0.25882 -0
    outer loop
      vertex -26.1441 -27.6377 -0.776597
      vertex -26.1441 -27.6377 -2.7766
      vertex -26.0313 -28.0586 -2.7766
    endloop
  endfacet
  facet normal -0.906304 -0.422627 -0
    outer loop
      vertex -26.0313 -28.0586 -0.776597
      vertex -26.0313 -28.0586 -2.7766
      vertex -25.8472 -28.4536 -2.7766
    endloop
  endfacet
  facet normal -0.819149 -0.57358 -0
    outer loop
      vertex -25.8472 -28.4536 -0.776597
      vertex -25.8472 -28.4536 -2.7766
      vertex -25.5972 -28.8106 -2.7766
    endloop
  endfacet
  facet normal -0.707106 -0.707108 -0
    outer loop
      vertex -25.5972 -28.8106 -0.776597
      vertex -25.5972 -28.8106 -2.7766
      vertex -25.2891 -29.1187 -2.7766
    endloop
  endfacet
  facet normal -0.573576 -0.819153 -0
    outer loop
      vertex -25.2891 -29.1187 -0.776597
      vertex -25.2891 -29.1187 -2.7766
      vertex -24.9321 -29.3687 -2.7766
    endloop
  endfacet
  facet normal -0.42262 -0.906307 -0
    outer loop
      vertex -24.9321 -29.3687 -0.776597
      vertex -24.9321 -29.3687 -2.7766
      vertex -24.5371 -29.5528 -2.7766
    endloop
  endfacet
  facet normal -0.25882 -0.965926 -0
    outer loop
      vertex -24.5371 -29.5528 -0.776597
      vertex -24.5371 -29.5528 -2.7766
      vertex -24.1162 -29.6656 -2.7766
    endloop
  endfacet
  facet normal -0.0871529 -0.996195 -0
    outer loop
      vertex -24.1162 -29.6656 -0.776597
      vertex -24.1162 -29.6656 -2.7766
      vertex -23.6821 -29.7036 -2.7766
    endloop
  endfacet
  facet normal -0.996195 0.087147 0
    outer loop
      vertex -26.1821 23.7964 -2.7766
      vertex -26.1821 23.7964 -0.776597
      vertex -26.1441 24.2305 -0.776597
    endloop
  endfacet
  facet normal -0.965926 0.25882 0
    outer loop
      vertex -26.1441 24.2305 -2.7766
      vertex -26.1441 24.2305 -0.776597
      vertex -26.0313 24.6515 -0.776597
    endloop
  endfacet
  facet normal -0.906304 0.422627 0
    outer loop
      vertex -26.0313 24.6515 -2.7766
      vertex -26.0313 24.6515 -0.776597
      vertex -25.8472 25.0464 -0.776597
    endloop
  endfacet
  facet normal -0.819149 0.57358 0
    outer loop
      vertex -25.8472 25.0464 -2.7766
      vertex -25.8472 25.0464 -0.776597
      vertex -25.5972 25.4034 -0.776597
    endloop
  endfacet
  facet normal -0.707106 0.707108 0
    outer loop
      vertex -25.5972 25.4034 -2.7766
      vertex -25.5972 25.4034 -0.776597
      vertex -25.2891 25.7115 -0.776597
    endloop
  endfacet
  facet normal -0.573575 0.819153 0
    outer loop
      vertex -25.2891 25.7115 -2.7766
      vertex -25.2891 25.7115 -0.776597
      vertex -24.9321 25.9615 -0.776597
    endloop
  endfacet
  facet normal -0.42262 0.906307 0
    outer loop
      vertex -24.9321 25.9615 -2.7766
      vertex -24.9321 25.9615 -0.776597
      vertex -24.5371 26.1456 -0.776597
    endloop
  endfacet
  facet normal -0.25882 0.965926 0
    outer loop
      vertex -24.5371 26.1456 -2.7766
      vertex -24.5371 26.1456 -0.776597
      vertex -24.1162 26.2584 -0.776597
    endloop
  endfacet
  facet normal -0.0871571 0.996195 0
    outer loop
      vertex -24.1162 26.2584 -2.7766
      vertex -24.1162 26.2584 -0.776597
      vertex -23.6821 26.2964 -0.776597
    endloop
  endfacet
  facet normal -0.0871571 0.996195 0
    outer loop
      vertex -23.6821 26.2964 -0.776597
      vertex -23.6821 26.2964 -2.7766
      vertex -24.1162 26.2584 -2.7766
    endloop
  endfacet
  facet normal -0.258824 0.965925 0
    outer loop
      vertex -24.1162 26.2584 -0.776597
      vertex -24.1162 26.2584 -2.7766
      vertex -24.5371 26.1456 -2.7766
    endloop
  endfacet
  facet normal -0.422613 0.90631 0
    outer loop
      vertex -24.5371 26.1456 -0.776597
      vertex -24.5371 26.1456 -2.7766
      vertex -24.9321 25.9615 -2.7766
    endloop
  endfacet
  facet normal -0.573576 0.819153 0
    outer loop
      vertex -24.9321 25.9615 -0.776597
      vertex -24.9321 25.9615 -2.7766
      vertex -25.2891 25.7115 -2.7766
    endloop
  endfacet
  facet normal -0.70711 0.707104 0
    outer loop
      vertex -25.2891 25.7115 -0.776597
      vertex -25.2891 25.7115 -2.7766
      vertex -25.5972 25.4034 -2.7766
    endloop
  endfacet
  facet normal -0.819153 0.573575 0
    outer loop
      vertex -25.5972 25.4034 -0.776597
      vertex -25.5972 25.4034 -2.7766
      vertex -25.8472 25.0464 -2.7766
    endloop
  endfacet
  facet normal -0.90631 0.422613 0
    outer loop
      vertex -25.8472 25.0464 -0.776597
      vertex -25.8472 25.0464 -2.7766
      vertex -26.0313 24.6515 -2.7766
    endloop
  endfacet
  facet normal -0.965928 0.258812 0
    outer loop
      vertex -26.0313 24.6515 -0.776597
      vertex -26.0313 24.6515 -2.7766
      vertex -26.1441 24.2305 -2.7766
    endloop
  endfacet
  facet normal -0.996194 0.0871636 0
    outer loop
      vertex -26.1441 24.2305 -0.776597
      vertex -26.1441 24.2305 -2.7766
      vertex -26.1821 23.7964 -2.7766
    endloop
  endfacet
  facet normal -0 -0 -1
    outer loop
      vertex 69.8179 -27.7036 -2.7766
      vertex 74.483 -28.4536 -2.7766
      vertex 74.233 -28.8106 -2.7766
    endloop
  endfacet
  facet normal -0 -0 -1
    outer loop
      vertex 74.233 -28.8106 -2.7766
      vertex 73.9249 -29.1187 -2.7766
      vertex 69.8179 -27.7036 -2.7766
    endloop
  endfacet
  facet normal 2.00439e-07 0 -1
    outer loop
      vertex 69.8179 24.2964 -2.7766
      vertex 73.9249 25.7115 -2.7766
      vertex 74.233 25.4034 -2.7766
    endloop
  endfacet
  facet normal 1.47414e-07 0 -1
    outer loop
      vertex 69.8179 24.2964 -2.7766
      vertex 72.752 26.2584 -2.7766
      vertex 73.173 26.1456 -2.7766
    endloop
  endfacet
  facet normal 1.47416e-07 0 -1
    outer loop
      vertex 69.8179 -27.7036 -2.7766
      vertex 73.173 -29.5528 -2.7766
      vertex 72.752 -29.6656 -2.7766
    endloop
  endfacet
  facet normal -0 -0 -1
    outer loop
      vertex 73.9249 -29.1187 -2.7766
      vertex 73.5679 -29.3687 -2.7766
      vertex 69.8179 -27.7036 -2.7766
    endloop
  endfacet
  facet normal -0 -0 -1
    outer loop
      vertex 69.8179 -27.7036 -2.7766
      vertex 74.7799 -27.6377 -2.7766
      vertex 74.6671 -28.0586 -2.7766
    endloop
  endfacet
  facet normal -0 -0 -1
    outer loop
      vertex 69.8179 24.2964 -2.7766
      vertex 73.5679 25.9615 -2.7766
      vertex 73.9249 25.7115 -2.7766
    endloop
  endfacet
  facet normal -6.34431e-07 -0 -1
    outer loop
      vertex 69.8179 24.2964 -2.7766
      vertex 72.3179 26.2964 -2.7766
      vertex 72.752 26.2584 -2.7766
    endloop
  endfacet
  facet normal -0 -0 -1
    outer loop
      vertex -23.5821 -27.7036 -2.7766
      vertex -25.5972 -28.8106 -2.7766
      vertex -25.8472 -28.4536 -2.7766
    endloop
  endfacet
  facet normal -0 -0 -1
    outer loop
      vertex 73.5679 -29.3687 -2.7766
      vertex 73.173 -29.5528 -2.7766
      vertex 69.8179 -27.7036 -2.7766
    endloop
  endfacet
  facet normal -1.05675e-07 -0 -1
    outer loop
      vertex 69.8179 -27.7036 -2.7766
      vertex 74.8179 -27.2036 -2.7766
      vertex 74.7799 -27.6377 -2.7766
    endloop
  endfacet
  facet normal -1.14801e-07 -0 -1
    outer loop
      vertex 69.8179 24.2964 -2.7766
      vertex 74.483 25.0464 -2.7766
      vertex 74.6671 24.6515 -2.7766
    endloop
  endfacet
  facet normal -0 -0 -1
    outer loop
      vertex 73.173 26.1456 -2.7766
      vertex 73.5679 25.9615 -2.7766
      vertex 69.8179 24.2964 -2.7766
    endloop
  endfacet
  facet normal -1.92447e-07 -0 -1
    outer loop
      vertex -23.5821 -27.7036 -2.7766
      vertex -24.1162 -29.6656 -2.7766
      vertex -24.5371 -29.5528 -2.7766
    endloop
  endfacet
  facet normal -0 -0 -1
    outer loop
      vertex -23.5821 -27.7036 -2.7766
      vertex -20.1821 -27.7036 -2.7766
      vertex -23.6821 -29.7036 -2.7766
    endloop
  endfacet
  facet normal -3.54515e-07 -0 -1
    outer loop
      vertex -23.5821 -27.7036 -2.7766
      vertex -25.2891 -29.1187 -2.7766
      vertex -25.5972 -28.8106 -2.7766
    endloop
  endfacet
  facet normal -2.296e-07 -0 -1
    outer loop
      vertex 74.6671 -28.0586 -2.7766
      vertex 74.483 -28.4536 -2.7766
      vertex 69.8179 -27.7036 -2.7766
    endloop
  endfacet
  facet normal -0 -0 -1
    outer loop
      vertex 69.8179 24.2964 -2.7766
      vertex 74.8179 23.7964 -2.7766
      vertex 74.8179 -27.2036 -2.7766
    endloop
  endfacet
  facet normal -0 -0 -1
    outer loop
      vertex 74.233 25.4034 -2.7766
      vertex 74.483 25.0464 -2.7766
      vertex 69.8179 24.2964 -2.7766
    endloop
  endfacet
  facet normal -0 -0 -1
    outer loop
      vertex -23.6821 -29.7036 -2.7766
      vertex -4.93209 -24.2036 -2.7766
      vertex 53.5679 -24.2036 -2.7766
    endloop
  endfacet
  facet normal -0 -0 -1
    outer loop
      vertex -23.6821 -29.7036 -2.7766
      vertex -24.1162 -29.6656 -2.7766
      vertex -23.5821 -27.7036 -2.7766
    endloop
  endfacet
  facet normal -0 -0 -1
    outer loop
      vertex -23.5821 24.2964 -2.7766
      vertex -25.8472 25.0464 -2.7766
      vertex -25.5972 25.4034 -2.7766
    endloop
  endfacet
  facet normal -0 -0 -1
    outer loop
      vertex -23.5821 24.2964 -2.7766
      vertex -26.1441 24.2305 -2.7766
      vertex -26.0313 24.6515 -2.7766
    endloop
  endfacet
  facet normal 2.2017e-07 0 -1
    outer loop
      vertex -25.8472 -28.4536 -2.7766
      vertex -26.0313 -28.0586 -2.7766
      vertex -23.5821 -27.7036 -2.7766
    endloop
  endfacet
  facet normal 7.00737e-07 0 -1
    outer loop
      vertex -23.5821 24.2964 -2.7766
      vertex -24.1162 26.2584 -2.7766
      vertex -23.6821 26.2964 -2.7766
    endloop
  endfacet
  facet normal 3.76346e-07 0 -1
    outer loop
      vertex -23.5821 24.2964 -2.7766
      vertex -24.9321 25.9615 -2.7766
      vertex -24.5371 26.1456 -2.7766
    endloop
  endfacet
  facet normal -0 -0 -1
    outer loop
      vertex 72.3179 26.2964 -2.7766
      vertex 69.8179 24.2964 -2.7766
      vertex 67.6329 24.2964 -2.7766
    endloop
  endfacet
  facet normal 1.11938e-07 0 -1
    outer loop
      vertex 74.8179 -27.2036 -2.7766
      vertex 69.8179 -27.7036 -2.7766
      vertex 69.8179 24.2964 -2.7766
    endloop
  endfacet
  facet normal 5.46252e-08 0 -1
    outer loop
      vertex 74.6671 24.6515 -2.7766
      vertex 74.7799 24.2305 -2.7766
      vertex 69.8179 24.2964 -2.7766
    endloop
  endfacet
  facet normal 9.96712e-08 0 -1
    outer loop
      vertex -23.6821 -29.7036 -2.7766
      vertex -20.1821 -27.7036 -2.7766
      vertex -4.93209 -24.2036 -2.7766
    endloop
  endfacet
  facet normal -0 -0 -1
    outer loop
      vertex -24.5371 -29.5528 -2.7766
      vertex -24.9321 -29.3687 -2.7766
      vertex -23.5821 -27.7036 -2.7766
    endloop
  endfacet
  facet normal 4.40345e-07 0 -1
    outer loop
      vertex -26.0313 24.6515 -2.7766
      vertex -25.8472 25.0464 -2.7766
      vertex -23.5821 24.2964 -2.7766
    endloop
  endfacet
  facet normal -0 -0 -1
    outer loop
      vertex -23.5821 -27.7036 -2.7766
      vertex -26.1821 -27.2036 -2.7766
      vertex -26.1821 23.7964 -2.7766
    endloop
  endfacet
  facet normal -1.06151e-07 -0 -1
    outer loop
      vertex -26.0313 -28.0586 -2.7766
      vertex -26.1441 -27.6377 -2.7766
      vertex -23.5821 -27.7036 -2.7766
    endloop
  endfacet
  facet normal -0 -0 -1
    outer loop
      vertex -24.5371 26.1456 -2.7766
      vertex -24.1162 26.2584 -2.7766
      vertex -23.5821 24.2964 -2.7766
    endloop
  endfacet
  facet normal -0 -0 -1
    outer loop
      vertex 67.6329 24.2964 -2.7766
      vertex 53.5679 20.7964 -2.7766
      vertex 72.3179 26.2964 -2.7766
    endloop
  endfacet
  facet normal -1.05675e-07 -0 -1
    outer loop
      vertex 74.7799 24.2305 -2.7766
      vertex 74.8179 23.7964 -2.7766
      vertex 69.8179 24.2964 -2.7766
    endloop
  endfacet
  facet normal -0 -0 -1
    outer loop
      vertex -24.9321 -29.3687 -2.7766
      vertex -25.2891 -29.1187 -2.7766
      vertex -23.5821 -27.7036 -2.7766
    endloop
  endfacet
  facet normal 2.0489e-07 0 -1
    outer loop
      vertex -23.5821 24.2964 -2.7766
      vertex -26.1821 23.7964 -2.7766
      vertex -26.1441 24.2305 -2.7766
    endloop
  endfacet
  facet normal 2.04894e-07 0 -1
    outer loop
      vertex -26.1441 -27.6377 -2.7766
      vertex -26.1821 -27.2036 -2.7766
      vertex -23.5821 -27.7036 -2.7766
    endloop
  endfacet
  facet normal -0 -0 -1
    outer loop
      vertex -23.5821 24.2964 -2.7766
      vertex -25.2891 25.7115 -2.7766
      vertex -24.9321 25.9615 -2.7766
    endloop
  endfacet
  facet normal -0 -0 -1
    outer loop
      vertex 72.3179 26.2964 -2.7766
      vertex 53.5679 20.7964 -2.7766
      vertex -4.93209 20.7964 -2.7766
    endloop
  endfacet
  facet normal -0 -0 -1
    outer loop
      vertex 72.752 -29.6656 -2.7766
      vertex 72.3179 -29.7036 -2.7766
      vertex 69.8179 -27.7036 -2.7766
    endloop
  endfacet
  facet normal -2.6155e-09 -0 -1
    outer loop
      vertex 53.5679 -24.2036 -2.7766
      vertex 67.6329 -27.7036 -2.7766
      vertex -23.6821 -29.7036 -2.7766
    endloop
  endfacet
  facet normal -2.15265e-07 -0 -1
    outer loop
      vertex -26.1821 23.7964 -2.7766
      vertex -23.5821 24.2964 -2.7766
      vertex -23.5821 -27.7036 -2.7766
    endloop
  endfacet
  facet normal -0 -0 -1
    outer loop
      vertex -23.6821 26.2964 -2.7766
      vertex -4.93209 20.7964 -2.7766
      vertex -20.1821 24.2964 -2.7766
    endloop
  endfacet
  facet normal -2.29381e-09 -0 -1
    outer loop
      vertex -20.1821 -27.7036 -2.7766
      vertex -20.1821 24.2964 -2.7766
      vertex -4.93209 20.7964 -2.7766
    endloop
  endfacet
  facet normal -0 -0 -1
    outer loop
      vertex 67.6329 24.2964 -2.7766
      vertex 53.5679 -24.2036 -2.7766
      vertex 53.5679 20.7964 -2.7766
    endloop
  endfacet
  facet normal -0 -0 -1
    outer loop
      vertex -25.5972 25.4034 -2.7766
      vertex -25.2891 25.7115 -2.7766
      vertex -23.5821 24.2964 -2.7766
    endloop
  endfacet
  facet normal -1.85544e-08 -0 -1
    outer loop
      vertex -4.93209 20.7964 -2.7766
      vertex -4.93209 -24.2036 -2.7766
      vertex -20.1821 -27.7036 -2.7766
    endloop
  endfacet
  facet normal -0 -0 -1
    outer loop
      vertex 53.5679 -24.2036 -2.7766
      vertex 67.6329 24.2964 -2.7766
      vertex 67.6329 -27.7036 -2.7766
    endloop
  endfacet
  facet normal -0 -0 -1
    outer loop
      vertex -4.93209 20.7964 -2.7766
      vertex -23.6821 26.2964 -2.7766
      vertex 72.3179 26.2964 -2.7766
    endloop
  endfacet
  facet normal -0 -0 -1
    outer loop
      vertex 72.3179 -29.7036 -2.7766
      vertex -23.6821 -29.7036 -2.7766
      vertex 67.6329 -27.7036 -2.7766
    endloop
  endfacet
  facet normal -0 -0 -1
    outer loop
      vertex 67.6329 -27.7036 -2.7766
      vertex 69.8179 -27.7036 -2.7766
      vertex 72.3179 -29.7036 -2.7766
    endloop
  endfacet
  facet normal -0 -0 -1
    outer loop
      vertex -23.6821 26.2964 -2.7766
      vertex -20.1821 24.2964 -2.7766
      vertex -23.5821 24.2964 -2.7766
    endloop
  endfacet
  facet normal 1 0 0
    outer loop
      vertex 69.8179 -27.7036 -2.7766
      vertex 69.8179 -27.7036 -4.7766
      vertex 69.8179 24.2964 -4.7766
    endloop
  endfacet
  facet normal 1 0 0
    outer loop
      vertex 69.8179 24.2964 -4.7766
      vertex 69.8179 24.2964 -2.7766
      vertex 69.8179 -27.7036 -2.7766
    endloop
  endfacet
  facet normal 0 1 0
    outer loop
      vertex 67.6329 24.2964 -4.7766
      vertex 67.6329 24.2964 -2.7766
      vertex 69.8179 24.2964 -2.7766
    endloop
  endfacet
  facet normal 0 1 0
    outer loop
      vertex 69.8179 24.2964 -2.7766
      vertex 69.8179 24.2964 -4.7766
      vertex 67.6329 24.2964 -4.7766
    endloop
  endfacet
  facet normal -1 -0 -0
    outer loop
      vertex 67.6329 -27.7036 -4.7766
      vertex 67.6329 -27.7036 -2.7766
      vertex 67.6329 24.2964 -2.7766
    endloop
  endfacet
  facet normal -1 -0 -0
    outer loop
      vertex 67.6329 24.2964 -2.7766
      vertex 67.6329 24.2964 -4.7766
      vertex 67.6329 -27.7036 -4.7766
    endloop
  endfacet
  facet normal -0 -1 -0
    outer loop
      vertex 69.8179 -27.7036 -2.7766
      vertex 67.6329 -27.7036 -2.7766
      vertex 67.6329 -27.7036 -4.7766
    endloop
  endfacet
  facet normal -0 -1 -0
    outer loop
      vertex 67.6329 -27.7036 -4.7766
      vertex 69.8179 -27.7036 -4.7766
      vertex 69.8179 -27.7036 -2.7766
    endloop
  endfacet
  facet normal -0 -0 -1
    outer loop
      vertex 67.6329 -27.7036 -4.7766
      vertex 67.6329 24.2964 -4.7766
      vertex 69.8179 24.2964 -4.7766
    endloop
  endfacet
  facet normal -0 -0 -1
    outer loop
      vertex 69.8179 24.2964 -4.7766
      vertex 69.8179 -27.7036 -4.7766
      vertex 67.6329 -27.7036 -4.7766
    endloop
  endfacet
  facet normal 0 1 0
    outer loop
      vertex -23.5821 24.2964 -4.7766
      vertex -23.5821 24.2964 -2.7766
      vertex -20.1821 24.2964 -2.7766
    endloop
  endfacet
  facet normal 0 1 0
    outer loop
      vertex -20.1821 24.2964 -2.7766
      vertex -20.1821 24.2964 -4.7766
      vertex -23.5821 24.2964 -4.7766
    endloop
  endfacet
  facet normal -1 -0 -0
    outer loop
      vertex -23.5821 -27.7036 -2.7766
      vertex -23.5821 24.2964 -2.7766
      vertex -23.5821 24.2964 -4.7766
    endloop
  endfacet
  facet normal -1 -0 -0
    outer loop
      vertex -23.5821 24.2964 -4.7766
      vertex -23.5821 -27.7036 -4.7766
      vertex -23.5821 -27.7036 -2.7766
    endloop
  endfacet
  facet normal -0 -1 -0
    outer loop
      vertex -20.1821 -27.7036 -2.7766
      vertex -23.5821 -27.7036 -2.7766
      vertex -23.5821 -27.7036 -4.7766
    endloop
  endfacet
  facet normal -0 -1 -0
    outer loop
      vertex -23.5821 -27.7036 -4.7766
      vertex -20.1821 -27.7036 -4.7766
      vertex -20.1821 -27.7036 -2.7766
    endloop
  endfacet
  facet normal 1 0 0
    outer loop
      vertex -20.1821 -27.7036 -2.7766
      vertex -20.1821 -27.7036 -4.7766
      vertex -20.1821 24.2964 -4.7766
    endloop
  endfacet
  facet normal 1 0 0
    outer loop
      vertex -20.1821 24.2964 -4.7766
      vertex -20.1821 24.2964 -2.7766
      vertex -20.1821 -27.7036 -2.7766
    endloop
  endfacet
  facet normal -0 -0 -1
    outer loop
      vertex -23.5821 -27.7036 -4.7766
      vertex -23.5821 24.2964 -4.7766
      vertex -20.1821 24.2964 -4.7766
    endloop
  endfacet
  facet normal -0 -0 -1
    outer loop
      vertex -20.1821 24.2964 -4.7766
      vertex -20.1821 -27.7036 -4.7766
      vertex -23.5821 -27.7036 -4.7766
    endloop
  endfacet
end solid
